HIERARCHY
ROOT Hips
{
  OFFSET 5.84602e-005 68.8428 3.50346
  CHANNELS 6 Xposition Yposition Zposition Zrotation Xrotation Yrotation
  JOINT Spine
  {
    OFFSET 0 8.597 -4.6522
    CHANNELS 3 Zrotation Xrotation Yrotation
    JOINT Spine1
    {
      OFFSET 0 7.8454 0.4098
      CHANNELS 3 Zrotation Xrotation Yrotation
      JOINT Spine2
      {
        OFFSET 0 9.7078 -2.1609
        CHANNELS 3 Zrotation Xrotation Yrotation
        JOINT Neck
        {
          OFFSET 0 21.8761 -0.4549
          CHANNELS 3 Zrotation Xrotation Yrotation
          JOINT Head
          {
            OFFSET 0 12.3537 3.3602
            CHANNELS 3 Zrotation Xrotation Yrotation
            End Site
            {
              OFFSET 0.0001 18.9506 0.5657
            }
          }
        }
        JOINT LeftShoulder
        {
          OFFSET 2.2086 21.1115 7.2329
          CHANNELS 3 Zrotation Xrotation Yrotation
          JOINT LeftArm
          {
            OFFSET 13.1193 3.0282 -4.8998
            CHANNELS 3 Zrotation Xrotation Yrotation
            JOINT LeftForeArm
            {
              OFFSET 27.4081 -0.0973053 -0.2375
              CHANNELS 3 Zrotation Xrotation Yrotation
              JOINT LeftHand
              {
                OFFSET 22.8641 0.0662994 -0.1369
                CHANNELS 3 Zrotation Xrotation Yrotation
                JOINT LeftHandIndex1
                {
                  OFFSET 8.8614 0.775009 2.4612
                  CHANNELS 3 Zrotation Xrotation Yrotation
                  JOINT LeftHandIndex2
                  {
                    OFFSET 3.3146 -0.808304 0.5841
                    CHANNELS 3 Zrotation Xrotation Yrotation
                    JOINT LeftHandIndex3
                    {
                      OFFSET 2.2628 -0.552002 0.3989
                      CHANNELS 3 Zrotation Xrotation Yrotation
                      End Site
                      {
                        OFFSET 1.6102 -0.4807 0.2612
                      }
                    }
                  }
                }
                JOINT LeftHandMiddle1
                {
                  OFFSET 8.9937 0.895004 0.2143
                  CHANNELS 3 Zrotation Xrotation Yrotation
                  JOINT LeftHandMiddle2
                  {
                    OFFSET 4.0984 0.0113983 -0.0242
                    CHANNELS 3 Zrotation Xrotation Yrotation
                    JOINT LeftHandMiddle3
                    {
                      OFFSET 2.2716 0.00689697 -0.0138001
                      CHANNELS 3 Zrotation Xrotation Yrotation
                      End Site
                      {
                        OFFSET 2.0404 -0.1441 0.0027
                      }
                    }
                  }
                }
                JOINT LeftHandRing1
                {
                  OFFSET 8.5234 0.597198 -2.0164
                  CHANNELS 3 Zrotation Xrotation Yrotation
                  JOINT LeftHandRing2
                  {
                    OFFSET 3.7188 -0.188293 -0.2328
                    CHANNELS 3 Zrotation Xrotation Yrotation
                    JOINT LeftHandRing3
                    {
                      OFFSET 2.1191 -0.106598 -0.1332
                      CHANNELS 3 Zrotation Xrotation Yrotation
                      End Site
                      {
                        OFFSET 1.8737 -0.2304 -0.0886
                      }
                    }
                  }
                }
                JOINT LeftHandPinky1
                {
                  OFFSET 7.9094 -0.601089 -3.4825
                  CHANNELS 3 Zrotation Xrotation Yrotation
                  JOINT LeftHandPinky2
                  {
                    OFFSET 2.2874 -0.477005 -0.6314
                    CHANNELS 3 Zrotation Xrotation Yrotation
                    JOINT LeftHandPinky3
                    {
                      OFFSET 1.6774 -0.349396 -0.4633
                      CHANNELS 3 Zrotation Xrotation Yrotation
                      End Site
                      {
                        OFFSET 1.4888 -0.4091 -0.3416
                      }
                    }
                  }
                }
                JOINT LeftHandThumb1
                {
                  OFFSET 1.833 -1.3875 1.3896
                  CHANNELS 3 Zrotation Xrotation Yrotation
                  JOINT LeftHandThumb2
                  {
                    OFFSET 3.4129 -1.121 2.5732
                    CHANNELS 3 Zrotation Xrotation Yrotation
                    JOINT LeftHandThumb3
                    {
                      OFFSET 2.2474 -0.804199 1.6192
                      CHANNELS 3 Zrotation Xrotation Yrotation
                      End Site
                      {
                        OFFSET 1.6527 -0.5689 1.1317
                      }
                    }
                  }
                }
              }
            }
          }
        }
        JOINT RightShoulder
        {
          OFFSET -2.2086 21.1115 7.2329
          CHANNELS 3 Zrotation Xrotation Yrotation
          JOINT RightArm
          {
            OFFSET -13.1216 3.0287 -4.9007
            CHANNELS 3 Zrotation Xrotation Yrotation
            JOINT RightForeArm
            {
              OFFSET -27.4081 -0.0973053 -0.2375
              CHANNELS 3 Zrotation Xrotation Yrotation
              JOINT RightHand
              {
                OFFSET -22.8641 0.0664063 -0.1369
                CHANNELS 3 Zrotation Xrotation Yrotation
                JOINT RightHandIndex1
                {
                  OFFSET -8.8614 0.774994 2.4612
                  CHANNELS 3 Zrotation Xrotation Yrotation
                  JOINT RightHandIndex2
                  {
                    OFFSET -3.3146 -0.808304 0.5841
                    CHANNELS 3 Zrotation Xrotation Yrotation
                    JOINT RightHandIndex3
                    {
                      OFFSET -2.2628 -0.552002 0.3989
                      CHANNELS 3 Zrotation Xrotation Yrotation
                      End Site
                      {
                        OFFSET -1.6102 -0.4807 0.2612
                      }
                    }
                  }
                }
                JOINT RightHandMiddle1
                {
                  OFFSET -8.9937 0.894989 0.2143
                  CHANNELS 3 Zrotation Xrotation Yrotation
                  JOINT RightHandMiddle2
                  {
                    OFFSET -4.0984 0.0113983 -0.0242
                    CHANNELS 3 Zrotation Xrotation Yrotation
                    JOINT RightHandMiddle3
                    {
                      OFFSET -2.2716 0.00691223 -0.0138001
                      CHANNELS 3 Zrotation Xrotation Yrotation
                      End Site
                      {
                        OFFSET -2.0404 -0.1441 0.0027
                      }
                    }
                  }
                }
                JOINT RightHandRing1
                {
                  OFFSET -8.5234 0.597198 -2.0164
                  CHANNELS 3 Zrotation Xrotation Yrotation
                  JOINT RightHandRing2
                  {
                    OFFSET -3.7188 -0.188309 -0.2328
                    CHANNELS 3 Zrotation Xrotation Yrotation
                    JOINT RightHandRing3
                    {
                      OFFSET -2.1191 -0.106598 -0.1332
                      CHANNELS 3 Zrotation Xrotation Yrotation
                      End Site
                      {
                        OFFSET -1.8737 -0.2304 -0.0886
                      }
                    }
                  }
                }
                JOINT RightHandPinky1
                {
                  OFFSET -7.9094 -0.601105 -3.4825
                  CHANNELS 3 Zrotation Xrotation Yrotation
                  JOINT RightHandPinky2
                  {
                    OFFSET -2.2874 -0.477005 -0.6314
                    CHANNELS 3 Zrotation Xrotation Yrotation
                    JOINT RightHandPinky3
                    {
                      OFFSET -1.6774 -0.349396 -0.4633
                      CHANNELS 3 Zrotation Xrotation Yrotation
                      End Site
                      {
                        OFFSET -1.4888 -0.4091 -0.3416
                      }
                    }
                  }
                }
                JOINT RightHandThumb1
                {
                  OFFSET -1.833 -1.38751 1.3896
                  CHANNELS 3 Zrotation Xrotation Yrotation
                  JOINT RightHandThumb2
                  {
                    OFFSET -3.41299 -1.12099 2.5732
                    CHANNELS 3 Zrotation Xrotation Yrotation
                    JOINT RightHandThumb3
                    {
                      OFFSET -2.24741 -0.804108 1.6192
                      CHANNELS 3 Zrotation Xrotation Yrotation
                      End Site
                      {
                        OFFSET -1.6527 -0.5689 1.1317
                      }
                    }
                  }
                }
              }
            }
          }
        }
      }
    }
  }
  JOINT RightUpLeg
  {
    OFFSET -9.1966 3.8861 -0.7581
    CHANNELS 3 Zrotation Xrotation Yrotation
    JOINT RightLeg
    {
      OFFSET -0.7359 -41.0265 0
      CHANNELS 3 Zrotation Xrotation Yrotation
      JOINT RightFoot
      {
        OFFSET 0 -40.2855 0
        CHANNELS 3 Zrotation Xrotation Yrotation
        JOINT RightToeBase
        {
          OFFSET 0 -5.6122 11.7359
          CHANNELS 3 Zrotation Xrotation Yrotation
          End Site
          {
            OFFSET 0 0 7.8731
          }
        }
      }
    }
  }
  JOINT LeftUpLeg
  {
    OFFSET 9.1965 3.8864 -0.7581
    CHANNELS 3 Zrotation Xrotation Yrotation
    JOINT LeftLeg
    {
      OFFSET 0.7359 -41.0268 0
      CHANNELS 3 Zrotation Xrotation Yrotation
      JOINT LeftFoot
      {
        OFFSET 0 -40.2855 0
        CHANNELS 3 Zrotation Xrotation Yrotation
        JOINT LeftToeBase
        {
          OFFSET 0 -5.6122 11.7359
          CHANNELS 3 Zrotation Xrotation Yrotation
          End Site
          {
            OFFSET 0 0 7.8731
          }
        }
      }
    }
  }
}
MOTION
Frames:	4
Frame Time:	0.0333333
39.7396 29.9701 5.62376 0 12.8544 -0 -0.0658217 3.06844 -0.39349 -0.110742 6.13721 -0.785136 -0.110743 6.13722 -0.785137 1.18967e-005 1.31951 -2.31755e-006 -9.30909 -10.4971 -13.5498 -10.3501 8.83294 -26.6394 -21.021 -5.89523 10.3509 -40.0006 23.7458 -32.2733 41.4723 -6.9271 -9.41242 -3.18055e-015 3.18055e-015 3.18055e-015 -2.2847e-006 2.9339e-007 1.54292e-007 2.3413e-006 8.41292e-007 2.49645e-007 -3.18055e-015 3.18055e-015 3.18055e-015 -0.0146487 -8.91152e-005 -2.25941e-006 2.34003e-006 8.41252e-007 2.4975e-007 -3.18055e-015 3.18055e-015 3.18055e-015 -0.0187457 -0.00117722 6.02044e-005 9.54166e-015 3.18055e-015 -3.18055e-015 -3.18055e-015 3.18055e-015 3.18055e-015 -0.0123172 -0.00326032 0.000676973 2.34024e-006 8.40968e-007 2.49727e-007 -3.18055e-015 3.18055e-015 3.18055e-015 -2.2847e-006 2.9339e-007 1.54292e-007 2.3413e-006 8.41292e-007 2.49645e-007 9.49872 8.65385 26.0189 21.1807 -5.83784 -10.5277 40.9947 24.2759 32.7655 -41.8229 -6.97009 9.40533 2.09098e-007 3.65508e-007 2.32313e-006 -2.99809e-007 -6.98058e-007 3.85435e-007 -8.08715e-007 -1.76162e-006 -1.55226e-006 2.09098e-007 3.65508e-007 2.32313e-006 0.014979 -9.04284e-005 4.77526e-006 -2.99801e-007 -6.98008e-007 3.85526e-007 2.09098e-007 3.65508e-007 2.32313e-006 0.0190141 -0.0011948 -5.96291e-005 -2.99795e-007 -6.97995e-007 3.85554e-007 2.09098e-007 3.65508e-007 2.32313e-006 0.0122905 -0.00325625 -0.000679861 -2.99787e-007 -6.9802e-007 3.85518e-007 2.09098e-007 3.65508e-007 2.32313e-006 -2.99809e-007 -6.98058e-007 3.85435e-007 -8.08715e-007 -1.76162e-006 -1.55226e-006 -7.27477 -9.31643 -14.9059 -148.902 87.6573 146.801 21.3711 49.6295 -29.3465 2.28257e-007 -2.31095e-007 -1.63571e-007 7.14892 -9.44022 14.7881 151.525 87.69 -149.341 -20.7513 48.7462 28.791 -8.8956e-008 8.7889e-008 -3.23517e-007 
39.7397 30.0244 5.27642 0 13.5678 -0 -0.0649546 3.00586 -0.393701 -0.109418 6.01207 -0.785609 -0.109418 6.01207 -0.785608 -2.01162e-006 1.6096 4.43123e-006 -9.28718 -11.1223 -13.5787 -10.3501 8.83292 -26.6394 -21.021 -5.89523 10.3509 -40.1457 23.8365 -32.3848 41.7696 -6.9376 -9.48859 -3.23556e-007 6.80122e-007 3.96797e-007 -1.36105e-006 1.58738e-006 1.18568e-006 -3.23556e-007 6.80122e-007 3.96797e-007 -3.23556e-007 6.80122e-007 3.96797e-007 -0.0145741 -8.75399e-005 -5.26484e-007 -3.23548e-007 6.80072e-007 3.96884e-007 -3.23556e-007 6.80122e-007 3.96797e-007 -0.0187273 -0.00117345 5.86781e-005 -3.23541e-007 6.80058e-007 3.96912e-007 -3.23556e-007 6.80122e-007 3.96797e-007 -0.0123149 -0.00326099 0.000679489 -3.23534e-007 6.80083e-007 3.96879e-007 -3.23556e-007 6.80122e-007 3.96797e-007 -1.36105e-006 1.58738e-006 1.18568e-006 -3.23556e-007 6.80122e-007 3.96797e-007 9.49872 8.65383 26.0189 21.1807 -5.83785 -10.5277 41.1949 24.4019 32.9107 -42.1375 -6.96507 9.4668 2.99568e-007 6.97597e-007 -3.8637e-007 -1.59028e-015 -3.18055e-015 -3.18055e-015 2.99568e-007 6.97597e-007 -3.8637e-007 2.99568e-007 6.97597e-007 -3.8637e-007 0.014988 -9.14599e-005 -5.00661e-006 2.9956e-007 6.97547e-007 -3.86461e-007 2.99568e-007 6.97597e-007 -3.8637e-007 0.0189965 -0.00119156 -6.10701e-005 2.99554e-007 6.97534e-007 -3.86488e-007 2.99568e-007 6.97597e-007 -3.8637e-007 0.0122977 -0.00325425 -0.000683416 2.99547e-007 6.97559e-007 -3.86453e-007 2.99568e-007 6.97597e-007 -3.8637e-007 -1.59028e-015 -3.18055e-015 -3.18055e-015 2.99568e-007 6.97597e-007 -3.8637e-007 -7.35541 -10.4629 -15.1 -152.481 87.3182 150.361 21.3868 49.6306 -29.3658 6.62269e-008 6.76247e-008 2.49447e-007 7.2293 -10.5781 14.9805 154.768 87.3488 -152.565 -20.7663 48.7473 28.8097 3.08889e-006 1.07153e-007 -1.22573e-006 
39.7397 30.0797 4.92881 0 14.2811 -0 -0.0640861 2.94325 -0.393909 -0.108092 5.88692 -0.786076 -0.108092 5.88692 -0.786075 8.82265e-006 1.89975 2.02376e-006 -9.2655 -11.748 -13.6072 -10.3501 8.83292 -26.6394 -21.021 -5.89523 10.3509 -40.2907 23.9275 -32.4962 42.0668 -6.94853 -9.56472 6.46444e-007 -1.3596e-006 -7.95028e-007 6.36111e-015 -3.18055e-015 -0 6.46444e-007 -1.3596e-006 -7.95028e-007 6.46444e-007 -1.3596e-006 -7.95028e-007 -0.0145273 -8.73831e-005 1.09887e-006 6.46427e-007 -1.3595e-006 -7.952e-007 6.46444e-007 -1.3596e-006 -7.95028e-007 -0.0188098 -0.00117967 5.39975e-005 6.46414e-007 -1.35948e-006 -7.95257e-007 6.46444e-007 -1.3596e-006 -7.95028e-007 -0.0122475 -0.00324049 0.000671341 -4.79101e-007 -1.58389e-006 -4.00592e-007 6.46444e-007 -1.3596e-006 -7.95028e-007 6.36111e-015 -3.18055e-015 -0 6.46444e-007 -1.3596e-006 -7.95028e-007 9.49872 8.65383 26.0189 21.1807 -5.83784 -10.5277 41.3949 24.5283 33.0556 -42.4522 -6.96034 9.52827 -1.11319e-014 3.18055e-015 -6.36111e-015 2.20315e-007 -2.51108e-006 -5.33951e-006 -3.18055e-015 -3.18055e-015 3.18055e-015 -1.11319e-014 3.18055e-015 -6.36111e-015 0.0149695 -9.16342e-005 8.10436e-007 1.59028e-015 6.36111e-015 6.36111e-015 -1.11319e-014 3.18055e-015 -6.36111e-015 0.0189771 -0.00119427 -6.56003e-005 -2.31445e-006 -9.39971e-007 -3.25687e-006 -1.11319e-014 3.18055e-015 -6.36111e-015 0.0122462 -0.00324509 -0.000680477 -9.54166e-015 6.36111e-015 3.18055e-015 -1.11319e-014 3.18055e-015 -6.36111e-015 2.20315e-007 -2.51108e-006 -5.33951e-006 -3.18055e-015 -3.18055e-015 3.18055e-015 -7.43978 -11.6087 -15.2965 -155.249 86.9712 153.11 21.4025 49.6318 -29.3853 9.28958e-008 9.47162e-008 3.49166e-007 7.31333 -11.7154 15.1752 157.265 87.001 -155.044 -20.7814 48.7484 28.8286 2.74652e-008 -2.70696e-008 9.95099e-008 
39.7397 30.1363 4.58098 0 14.9943 -0 -0.0632161 2.88075 -0.394117 -0.106764 5.76177 -0.78654 -0.106764 5.76177 -0.78654 2.4233e-006 2.1899 1.67109e-006 -9.24399 -12.3741 -13.6352 -10.3501 8.83293 -26.6394 -21.021 -5.89523 10.3509 -40.4356 24.0188 -32.6073 42.364 -6.95982 -9.6408 1.98497e-006 1.52024e-006 6.65051e-007 4.97306e-007 1.58099e-006 3.94727e-007 1.98497e-006 1.52024e-006 6.65051e-007 1.98497e-006 1.52024e-006 6.65051e-007 -0.0145757 -8.85639e-005 -5.68868e-008 -3.2287e-007 6.79435e-007 3.98317e-007 1.98497e-006 1.52024e-006 6.65051e-007 -0.0187356 -0.00117616 5.75215e-005 -3.22863e-007 6.79421e-007 3.98345e-007 1.98497e-006 1.52024e-006 6.65051e-007 -0.0122008 -0.00323021 0.000672341 -3.22856e-007 6.79447e-007 3.98311e-007 1.98497e-006 1.52024e-006 6.65051e-007 4.97306e-007 1.58099e-006 3.94727e-007 1.98497e-006 1.52024e-006 6.65051e-007 9.49872 8.65384 26.0189 21.1807 -5.83784 -10.5277 41.5947 24.6551 33.2001 -42.7669 -6.95592 9.58977 -3.19155e-007 -1.66248e-006 -2.15924e-006 -2.89845e-006 -2.3373e-006 -2.48269e-006 -6.18202e-007 -2.35916e-006 -1.771e-006 -3.19155e-007 -1.66248e-006 -2.15924e-006 0.0149872 -8.92472e-005 -1.54188e-006 -4.46939e-008 -1.28384e-006 1.49133e-007 -3.19155e-007 -1.66248e-006 -2.15924e-006 0.0189992 -0.00119234 -6.7465e-005 -6.19392e-007 -2.35939e-006 -1.7706e-006 -3.19155e-007 -1.66248e-006 -2.15924e-006 0.0122572 -0.00324372 -0.000671399 -6.18995e-007 -2.35916e-006 -1.77069e-006 -3.19155e-007 -1.66248e-006 -2.15924e-006 -2.89845e-006 -2.3373e-006 -2.48269e-006 -6.18202e-007 -2.35916e-006 -1.771e-006 -7.52788 -12.7542 -15.4954 -157.449 86.6179 155.29 21.4184 49.6329 -29.4049 -3.18194e-006 1.61571e-006 4.1778e-007 7.4011 -12.8521 15.3724 159.245 86.6486 -157.006 -20.7964 48.7496 28.8475 -1.02215e-008 -6.05728e-007 9.65361e-007 
